<?xml version="1.0" encoding="utf-8"?>
<svg id="_레이어_1" data-name="레이어 1" version="1.1" viewBox="0 0 1228 2500" xmlns="http://www.w3.org/2000/svg">
  <defs>
    <style>
      .cls-1 {
        stroke: #000;
        stroke-miterlimit: 40.8;
        stroke-width: 4.1px;
      }

      .cls-1, .cls-2 {
        fill: #fff;
      }

      .cls-2 {
        stroke-width: 0px;
      }
    </style>
  </defs>
  <polygon class="cls-1" points="582.5 1635.1 582.5 1635.1 582.5 1635.1 582.5 1635.1"/>
  <path class="cls-2" d="M658.6,1559.7l.8,28s28.7,5,32.2,23l-10.7,10.2c.2-.2-30.7-46.7-98.3,14.2v118.6h121.1v-164.2l-17-29.7h-28Z"/>
  <path class="cls-2" d="M802.4,819.2s-262.8-5.5-276.3,78.6l-2.7-422.8s84.1-94.8,192.4,2.7l-2.7,252.1h514.9v-320s-1.3-428.1-606.3-403.8C621.4,6,46.4-42.6.2,409.9v1688.2s-27.2,403.8,596.3,390.1c0,0,560.8,67.6,631.5-376.6v-1073s-43.4-219.4-425.6-219.4ZM973.9,1513.8c-166.5,0-256.3,46.2-256.3,46.2v210.7c-103.3-13-148,45.7-148,45.7v403.1h-16.5v17h-123.5v-15.2h-41.2v-41.7h15.7v-775h0s-.5-10.7-.5-10.7h-15v-31.4h14.7v-28.5h30.4v-13.5h135.5c34.7,100.8,198.9,11,198.9,11,143.8-98.3,205.7-10.2,205.7-10.2v192.7Z" style="fill: rgb(0, 0, 0);"/>
</svg>