<?xml version="1.0" encoding="UTF-8"?>
<svg id="_레이어_1" data-name="레이어 1" xmlns="http://www.w3.org/2000/svg" version="1.1" viewBox="0 0 595.28 841.89">
  <defs>
    <style>
      .cls-1 {
        fill: #005198;
      }

      .cls-1, .cls-2, .cls-3, .cls-4, .cls-5 {
        stroke-width: 0px;
      }

      .cls-2 {
        fill: #bebebe;
      }

      .cls-3 {
        fill: #88b930;
      }

      .cls-4 {
        fill: #4b86c3;
      }

      .cls-5 {
        fill: #a0c629;
      }
    </style>
  </defs>
  <path class="cls-5" d="M130.23,416.34s-71.59-73.31-24.35-132.84c0,0,46.45,17.38,24.35,132.84Z"/>
  <path class="cls-3" d="M140.54,353.06s14.09-25.98,48.06-37.31c0,0,25.97,53.04-61.88,120.99l-.26-20.43,5.23,4.14s9.96-42.82,8.85-67.4Z"/>
  <path class="cls-4" d="M175.5,440.7h20.85v43.71c0,4.35-.62,8.45-1.86,12.28-1.22,3.85-3.18,7.23-5.84,10.09-2.68,2.9-5.45,4.91-8.34,6.06-4.05,1.65-8.92,2.45-14.61,2.45-3.27,0-6.85-.25-10.73-.75-3.9-.49-7.12-1.47-9.73-2.96-2.59-1.49-4.96-3.6-7.15-6.31-2.15-2.75-3.66-5.56-4.43-8.45-1.32-4.68-1.98-8.81-1.98-12.41v-43.71h20.87v44.75c0,3.98,1.01,7.1,3.06,9.37,2.04,2.24,4.86,3.36,8.42,3.36s6.39-1.11,8.41-3.32c2.02-2.21,3.05-5.35,3.05-9.41v-44.75Z"/>
  <path class="cls-4" d="M210.35,440.7h19.47l25.42,40.61v-40.61h19.62v73.37h-19.62l-25.27-40.35v40.35h-19.61v-73.37Z"/>
  <path class="cls-4" d="M288.74,440.7h20.86v25.71h22.92v-25.71h20.85v73.37h-20.85v-29.7h-22.92v29.7h-20.86v-73.37Z"/>
  <path class="cls-4" d="M364.64,477.44c0-11.97,3.05-21.3,9.18-27.96,6.15-6.65,14.69-10,25.67-10s19.84,3.29,25.91,9.81c6.08,6.57,9.14,15.75,9.14,27.56,0,8.56-1.34,15.6-4,21.08-2.66,5.49-6.5,9.74-11.51,12.8-4.99,3.06-11.26,4.57-18.74,4.57s-13.9-1.3-18.88-3.92c-4.98-2.65-9.04-6.81-12.14-12.51-3.09-5.71-4.63-12.85-4.63-21.42ZM385.47,477.52c0,7.4,1.24,12.7,3.81,15.94,2.54,3.23,5.94,4.87,10.29,4.87s7.97-1.6,10.41-4.76c2.45-3.17,3.68-8.86,3.68-17.07,0-6.89-1.3-11.93-3.85-15.13-2.56-3.19-6.02-4.77-10.38-4.77s-7.58,1.62-10.11,4.86c-2.56,3.22-3.84,8.57-3.84,16.06Z"/>
  <path class="cls-4" d="M497.68,514.07h-56.34c.67-6.04,2.62-11.7,5.87-17.01,3.28-5.34,9.4-11.6,18.41-18.85,5.52-4.44,9.03-7.82,10.56-10.1,1.55-2.3,2.32-4.5,2.32-6.58,0-2.22-.77-4.13-2.28-5.72-1.52-1.59-3.44-2.39-5.75-2.39s-4.37.82-5.9,2.48c-1.51,1.64-2.54,4.55-3.09,8.71l-18.77-1.65c.73-5.77,2.07-10.26,4.03-13.48,1.99-3.22,4.74-5.7,8.31-7.44,3.59-1.71,8.55-2.56,14.9-2.56s11.69.81,15.34,2.46c3.68,1.65,6.57,4.14,8.67,7.55,2.11,3.38,3.16,7.18,3.16,11.37,0,4.47-1.19,8.72-3.59,12.8-2.42,4.07-6.79,8.55-13.17,13.42-3.76,2.85-6.27,4.83-7.54,5.95-1.28,1.15-2.77,2.64-4.53,4.46h29.38v16.59Z"/>
  <path class="cls-4" d="M548,439.48v74.59h-18.93v-48.84c-3.08,2.54-6.05,4.55-8.91,6.11-2.88,1.56-6.49,3.05-10.85,4.49v-16.6c6.42-2.25,11.41-4.92,14.91-8.08,3.53-3.15,6.28-7.04,8.29-11.66h15.5Z"/>
  <path class="cls-1" d="M48,440.35h24.86l11.61,22.12,17.12-28.18s11.59-23.75,22.1-23.75v29.81l-26.5,42.54v54.74s-9.4-1.14-9.4,13.24v6.64h-14.93v-78.47l-24.86-38.69Z"/>
  <g>
    <path class="cls-2" d="M158.37,539.03h-14.98v13.07h14.98v-4.59h-7.83v-3.53h12.5v7.13c0,1.88-.36,3.18-1.03,3.85-.73.69-2.09,1.03-4.09,1.03h-14.21c-2.02,0-3.37-.34-4.07-1.03-.7-.67-1.06-1.97-1.06-3.85v-10.92c0-1.85.36-3.13,1.06-3.82.7-.67,2.06-1.01,4.07-1.01h14.21c1.99,0,3.34.32,4.04,1,.71.66,1.07,1.89,1.07,3.65v.45l-4.67.82v-2.26Z"/>
    <path class="cls-2" d="M170.28,555.61v-15.17h15.54v2.58h-12.02v3.39h7.01v2.61h-7.01v3.75h12.17v2.85h-15.69Z"/>
    <path class="cls-2" d="M192.44,555.61v-15.17h2.43l10.67,8.93c.36.3.67.59.95.84.27.26.52.55.77.81-.05-.84-.09-1.44-.14-1.8,0-.36-.01-.62-.01-.82v-7.96h3.17v15.17h-2.39l-11.15-9.37c-.26-.25-.49-.45-.7-.64-.2-.2-.4-.4-.56-.6.06.47.09.92.11,1.34.01.41.04.77.04,1.07v8.2h-3.18Z"/>
    <path class="cls-2" d="M218.07,555.61v-15.17h15.54v2.58h-12v3.39h7.01v2.61h-7.01v3.75h12.17v2.85h-15.71Z"/>
    <path class="cls-2" d="M240.28,555.61v-15.17h13.03c1.19,0,2.06.22,2.6.7.54.47.78,1.21.78,2.26v3.55c0,1.02-.23,1.77-.78,2.24-.54.46-1.4.68-2.6.68h-1.99l7,5.73h-5.09l-6.12-5.73h-3.35v5.73h-3.48ZM251.72,543.05h-7.96v4.24h7.96c.63,0,1.04-.09,1.28-.27.22-.18.33-.48.33-.93v-1.81c0-.47-.11-.77-.33-.93-.24-.17-.64-.29-1.28-.29Z"/>
    <path class="cls-2" d="M259.92,555.61l8.59-15.17h3.4l8.71,15.17h-3.96l-1.84-3.33h-9.62l-1.76,3.33h-3.52ZM266.7,549.52h6.65l-3.28-6.16-3.38,6.16Z"/>
    <path class="cls-2" d="M285.52,555.61v-15.17h3.54v12.32h11.39v2.85h-14.93Z"/>
    <path class="cls-2" d="M322.93,556v-20.63h4.8v7.97h14.98v-7.97h4.9v20.63h-4.9v-8.91h-14.98v8.91h-4.8Z"/>
    <path class="cls-2" d="M355.04,544c0-1.36.27-2.3.78-2.82.52-.51,1.51-.75,3-.75h11.17c1.47,0,2.47.25,3,.75.51.51.77,1.46.77,2.82v8.01c0,1.4-.26,2.35-.77,2.84-.54.51-1.54.75-3,.75h-11.17c-1.5,0-2.48-.24-3-.75-.51-.49-.78-1.44-.78-2.84v-8.01ZM358.57,552.75h11.66v-9.63h-11.66v9.63Z"/>
    <path class="cls-2" d="M394.28,543.05h-9.91v3.29h9.46c1.47,0,2.49.26,3.02.77.54.52.78,1.47.78,2.85v2.07c0,1.36-.25,2.3-.78,2.81-.52.51-1.55.75-3.02.75h-9.37c-1.48,0-2.47-.24-3-.75-.51-.51-.78-1.45-.78-2.81v-.42l3.12-.65v1.78h10.72v-3.44h-9.47c-1.48,0-2.45-.25-2.99-.77-.49-.5-.75-1.45-.75-2.85v-1.68c0-1.36.26-2.3.75-2.82.54-.51,1.51-.75,2.99-.75h8.59c1.44,0,2.43.22,2.99.72.51.49.8,1.36.8,2.59v.32l-3.14.73v-1.73Z"/>
    <path class="cls-2" d="M405.01,555.61v-15.17h13.02c1.19,0,2.07.22,2.6.7.54.47.8,1.21.8,2.26v3.36c0,1.03-.26,1.76-.8,2.23-.53.45-1.41.7-2.6.7h-9.53v5.91h-3.48ZM416.46,543.05h-7.97v4.04h7.97c.6,0,1.01-.1,1.26-.28.21-.18.33-.48.33-.94v-1.59c0-.47-.12-.77-.33-.93-.25-.17-.66-.29-1.26-.29Z"/>
    <path class="cls-2" d="M426.87,555.61v-15.17h3.54v15.17h-3.54Z"/>
    <path class="cls-2" d="M445.24,543.12v12.48h-3.54v-12.48h-6.96v-2.69h17.51v2.69h-7.01Z"/>
    <path class="cls-2" d="M451.65,555.61l8.59-15.17h3.41l8.71,15.17h-3.96l-1.81-3.33h-9.64l-1.77,3.33h-3.51ZM458.44,549.52h6.65l-3.27-6.16-3.39,6.16Z"/>
    <path class="cls-2" d="M477.26,555.61v-15.17h3.51v12.32h11.4v2.85h-14.91Z"/>
  </g>
</svg>