<?xml version="1.0" encoding="utf-8"?>
<svg id="_레이어_1" data-name="레이어 1" version="1.1" viewBox="0 0 612 792" xmlns="http://www.w3.org/2000/svg">
  <defs>
    <style>
      .cls-1 {
        fill: #8fc31f;
      }

      .cls-1, .cls-2, .cls-3 {
        stroke-width: 0px;
      }

      .cls-2 {
        fill: #006934;
      }

      .cls-3 {
        fill: #00a29a;
      }
    </style>
  </defs>
  <g transform="matrix(1, 0, 0, 1, -7, 36)">
    <g>
      <path class="cls-2" d="M136.8,385.89v68.47h17.4v-77.18h-8.7c-4.81,0-8.7,3.9-8.7,8.7Z"/>
      <path class="cls-2" d="M269.16,408.56c-10.07-3.78-14.31-5.96-14.31-10.88,0-3.89,3.66-7.44,11.22-7.44,3.18,0,6,.41,8.45.98h0s.08,0,.19.04c.36.09.74.17,1.09.26,2.25.42,6.82.55,8.3-4.77l1.9-6.82c-4.58-2.18-10.88-3.89-19.69-3.89-18.09,0-29.2,9.96-29.2,23.13,0,11.22,8.47,18.32,21.3,22.9,9.27,3.21,12.94,5.95,12.94,10.76s-4.24,8.36-12.25,8.36c-7.44,0-14.77-2.4-19.35-4.81l-3.55,14.31c4.35,2.41,13.05,4.81,21.87,4.81,21.18,0,31.03-10.99,31.03-23.93,0-10.88-6.3-17.98-19.92-23.01Z"/>
      <path class="cls-2" d="M480.08,410.17v4.92c0,4.81,3.9,8.7,8.7,8.7h3.21v16.26c-1.38.57-4.58,1.03-8.48,1.03-14.31,0-24.39-9.27-24.39-25.3,0-16.83,11.11-24.96,25.65-24.96,8.48,0,13.63,1.37,17.86,3.32l3.66-14.09c-3.78-1.72-11.45-3.66-21.41-3.66-25.3,0-43.97,14.66-44.08,40.3,0,11.33,3.89,21.41,10.88,28.17,7.1,6.76,17.29,10.31,31.37,10.31,10.2,0,20.38-2.52,25.77-4.35v-40.65h-28.74Z"/>
      <path class="cls-2" d="M212.6,377.19v52.18c-6.01-12.77-27.48-52.18-27.48-52.18h-11.68c-4.81,0-8.7,3.9-8.7,8.7v68.47h16.03v-56.22c4.69,10.74,29.54,56.22,29.54,56.22h18.32v-77.18h-16.03Z"/>
      <path class="cls-2" d="M417.79,377.19v52.18c-6.01-12.77-27.48-52.18-27.48-52.18h-11.68c-4.81,0-8.7,3.9-8.7,8.7v68.47h16.03v-56.22c4.69,10.74,29.54,56.22,29.54,56.22h18.32v-77.18h-16.03Z"/>
      <path class="cls-2" d="M341.99,425.69c0,7.78-6.3,14.08-14.08,14.08s-14.09-6.3-14.09-14.08v-48.5h-8.7c-4.81,0-8.7,3.9-8.7,8.7v38.24c0,17.39,14.1,31.48,31.49,31.48s31.49-14.1,31.49-31.48v-46.95h-17.4v48.5Z"/>
    </g>
    <g>
      <path class="cls-1" d="M189.48,302.56s-29.74,2.04-44.24,21.01c2.43,3.89,4.35,8.3,5.09,13.14,2.87,18.68-12.74,36.57-12.74,36.57,0,0,30.37-2.07,44.7-21.6,14.33-19.53,7.19-49.12,7.19-49.12Z"/>
      <path class="cls-3" d="M144.79,324.16c.14-.2.3-.39.45-.59-6.93-11.11-18.03-17.92-18.03-17.92,0,0-15.61,17.89-12.74,36.57,2.87,18.68,23.13,31.06,23.13,31.06,0,0-7.14-29.59,7.19-49.12Z"/>
      <path class="cls-2" d="M150.33,336.71c-.74-4.84-2.66-9.25-5.09-13.14-.15.2-.31.39-.45.59-14.33,19.53-7.19,49.12-7.19,49.12,0,0,15.61-17.89,12.74-36.57Z"/>
    </g>
    <path class="cls-2" d="M96.21,382.72s6.49-12.04,17.14-14.28c10.66-2.24,21.44,6.18,21.44,6.18,0,0-6.49,12.04-17.14,14.29-10.65,2.24-21.44-6.18-21.44-6.18Z"/>
  </g>
  <g transform="matrix(1, 0, 0, 1, -7, 36)">
    <path class="cls-2" d="M136.8,464.9h3.66v20.91h-3.66v-20.91Z"/>
    <path class="cls-2" d="M144.79,464.9h3.87l9.55,15.4h.06v-15.4h3.48v20.91h-3.87l-9.52-15.37h-.09v15.37h-3.48v-20.91Z"/>
    <path class="cls-2" d="M168.07,478.84c0,1.6.52,2.74,1.55,3.44,1.04.69,2.28,1.04,3.75,1.04,1.62,0,2.76-.33,3.43-1,.66-.66,1-1.39,1-2.17s-.18-1.39-.54-1.77c-.36-.38-.76-.65-1.19-.81-.72-.27-1.58-.53-2.57-.78-1-.24-2.22-.56-3.66-.95-1.78-.49-2.99-1.23-3.65-2.21-.65-.99-.98-2.02-.98-3.09,0-2.09.8-3.64,2.4-4.64,1.6-1.01,3.35-1.51,5.24-1.51,2.19,0,4.07.56,5.65,1.7,1.58,1.13,2.37,2.79,2.37,4.98h-3.66c-.08-1.34-.53-2.3-1.36-2.85-.83-.55-1.88-.84-3.15-.84-.84,0-1.69.19-2.55.57-.86.38-1.29,1.1-1.29,2.15,0,.72.23,1.3.69,1.73.46.43,1.06.75,1.8.97.15.04,1.06.28,2.72.72,1.66.44,2.76.74,3.31.89,1.39.41,2.41,1.13,3.08,2.15.66,1.02.99,2.08.99,3.18,0,2.34-.86,4.02-2.59,5.04-1.72,1.02-3.63,1.52-5.72,1.52-2.38,0-4.42-.59-6.12-1.78-1.7-1.19-2.56-3.08-2.6-5.68h3.66Z"/>
    <path class="cls-2" d="M183.97,464.9h3.66v12.18c0,1.41.23,2.77.69,4.08.46,1.32,1.87,1.98,4.23,1.98s3.79-.66,4.24-1.98c.45-1.32.67-2.68.67-4.08v-12.18h3.66v13.38c0,2.67-.79,4.68-2.36,6.02-1.57,1.34-3.64,2-6.22,2s-4.65-.67-6.22-2c-1.57-1.34-2.36-3.34-2.36-6.02v-13.38Z"/>
    <path class="cls-2" d="M205.2,464.9h3.87l9.54,15.4h.06v-15.4h3.48v20.91h-3.86l-9.52-15.37h-.09v15.37h-3.48v-20.91Z"/>
    <path class="cls-2" d="M244.23,485.81h-2.34l-.56-2.46c-.98,1.11-1.95,1.88-2.93,2.31-.98.43-2.1.64-3.37.64-3.12,0-5.57-1.08-7.35-3.23-1.78-2.16-2.66-4.73-2.66-7.72s.89-5.56,2.66-7.71c1.78-2.16,4.23-3.23,7.35-3.23,2.28,0,4.28.6,5.99,1.8,1.71,1.2,2.69,2.98,2.97,5.35h-3.57c-.18-1.39-.79-2.43-1.83-3.12-1.04-.69-2.23-1.04-3.56-1.04-2.25,0-3.86.83-4.86,2.48-.99,1.65-1.49,3.48-1.49,5.49s.5,3.84,1.49,5.48c1,1.64,2.61,2.47,4.86,2.49,1.88.02,3.32-.49,4.32-1.52,1.01-1.03,1.52-2.44,1.54-4.22h-5.56v-2.78h8.9v11.01Z"/>
    <path class="cls-2" d="M256.29,464.9h5.15l5.77,16.37h.06l5.62-16.37h5.09v20.91h-3.48v-16.14h-.06l-5.8,16.14h-3.02l-5.8-16.14h-.06v16.14h-3.48v-20.91Z"/>
    <path class="cls-2" d="M282.73,464.9h15.05v3.16h-11.39v5.47h10.54v2.98h-10.54v6.12h11.59v3.16h-15.26v-20.91Z"/>
    <path class="cls-2" d="M301.18,464.9h8.66c3.22,0,5.57,1.02,7.03,3.06,1.46,2.04,2.2,4.5,2.2,7.39s-.74,5.36-2.2,7.4c-1.46,2.04-3.81,3.06-7.03,3.06h-8.66v-20.91ZM304.84,482.82h3.6c2.87,0,4.75-.72,5.64-2.17.89-1.44,1.33-3.21,1.33-5.3s-.44-3.85-1.33-5.3c-.89-1.45-2.77-2.17-5.64-2.17h-3.6v14.93Z"/>
    <path class="cls-2" d="M322.03,464.9h3.66v20.91h-3.66v-20.91Z"/>
    <path class="cls-2" d="M343.69,471.55c-.31-1.21-.88-2.21-1.7-2.99-.82-.78-1.99-1.17-3.51-1.17-2.24,0-3.86.83-4.86,2.48-.99,1.65-1.49,3.48-1.49,5.49s.5,3.84,1.49,5.49c1,1.65,2.62,2.48,4.86,2.48,1.62,0,2.88-.53,3.78-1.6.9-1.07,1.42-2.36,1.55-3.88h3.57c-.14,2.5-1.02,4.53-2.65,6.11-1.63,1.57-3.71,2.35-6.25,2.35-3.12,0-5.57-1.08-7.35-3.23-1.78-2.16-2.66-4.73-2.66-7.72s.89-5.56,2.66-7.73c1.78-2.17,4.23-3.24,7.35-3.22,2.36,0,4.38.62,6.05,1.87,1.67,1.25,2.61,3.01,2.83,5.27h-3.66Z"/>
    <path class="cls-2" d="M354.55,464.9h3.89l8.06,20.91h-3.93l-1.96-5.53h-8.34l-1.96,5.53h-3.78l8.02-20.91ZM353.27,477.5h6.38l-3.13-8.99h-.09l-3.16,8.99Z"/>
    <path class="cls-2" d="M368.49,464.9h3.66v17.74h10.63v3.16h-14.29v-20.91Z"/>
    <path class="cls-2" d="M407.55,471.55c-.31-1.21-.88-2.21-1.69-2.99-.82-.78-1.99-1.17-3.51-1.17-2.24,0-3.87.83-4.86,2.48-1,1.65-1.49,3.48-1.49,5.49s.5,3.84,1.49,5.49c.99,1.65,2.62,2.48,4.86,2.48,1.62,0,2.88-.53,3.78-1.6.9-1.07,1.41-2.36,1.55-3.88h3.57c-.14,2.5-1.02,4.53-2.65,6.11-1.63,1.57-3.71,2.35-6.25,2.35-3.12,0-5.57-1.08-7.35-3.23-1.77-2.16-2.66-4.73-2.66-7.72s.89-5.56,2.66-7.73c1.78-2.17,4.23-3.24,7.35-3.22,2.36,0,4.38.62,6.05,1.87,1.67,1.25,2.61,3.01,2.82,5.27h-3.66Z"/>
    <path class="cls-2" d="M423.48,464.41c3.14,0,5.6,1.08,7.37,3.23,1.76,2.16,2.65,4.73,2.65,7.71s-.89,5.56-2.65,7.72c-1.77,2.16-4.22,3.23-7.37,3.23s-5.57-1.08-7.35-3.23c-1.78-2.16-2.67-4.73-2.67-7.72s.89-5.56,2.67-7.71c1.77-2.16,4.22-3.23,7.35-3.23ZM423.48,467.39c-2.25,0-3.86.83-4.86,2.48-.99,1.65-1.49,3.48-1.49,5.49s.5,3.84,1.49,5.49c1,1.65,2.62,2.48,4.86,2.48s3.87-.82,4.86-2.48c1-1.65,1.5-3.48,1.5-5.49s-.5-3.84-1.5-5.49c-.99-1.65-2.61-2.48-4.86-2.48Z"/>
    <path class="cls-2" d="M436.62,485.81v-3.95h4.07v3.95h-4.07Z"/>
    <path class="cls-2" d="M444.77,481.86h4.07v3.95c0,1.19-.37,2.2-1.11,3.03-.74.83-1.69,1.36-2.84,1.59v-1.79c.64-.16,1.13-.52,1.45-1.07.32-.55.47-1.15.45-1.77h-2.02v-3.95Z"/>
    <path class="cls-2" d="M461.25,464.9h3.66v17.74h10.63v3.16h-14.29v-20.91Z"/>
    <path class="cls-2" d="M472.44,464.9h16.92v3.16h-6.64v17.74h-3.66v-17.74h-6.61v-3.16Z"/>
    <path class="cls-2" d="M491.79,464.9h8.67c3.22,0,5.56,1.02,7.03,3.06,1.46,2.04,2.19,4.5,2.19,7.39s-.73,5.36-2.19,7.4c-1.46,2.04-3.8,3.06-7.03,3.06h-8.67v-20.91ZM495.45,482.82h3.6c2.87,0,4.75-.72,5.64-2.17.89-1.44,1.33-3.21,1.33-5.3s-.45-3.85-1.33-5.3c-.89-1.45-2.77-2.17-5.64-2.17h-3.6v14.93Z"/>
    <path class="cls-2" d="M512.72,485.81v-3.95h4.07v3.95h-4.07Z"/>
  </g>
</svg>